<svg xmlns="http://www.w3.org/2000/svg" xmlns:xlink="http://www.w3.org/1999/xlink" width="3780" zoomAndPan="magnify" viewBox="0 0 2835 2834.999876" height="3780" preserveAspectRatio="xMidYMid meet" version="1.0"><defs><clipPath id="c08a91576c"><path d="M 1 1 L 2241 1 L 2241 1561.519531 L 1 1561.519531 Z M 1 1 " clip-rule="nonzero"/></clipPath><clipPath id="e79c13346b"><rect x="0" width="2242" y="0" height="1562"/></clipPath></defs><g transform="matrix(1, 0, 0, 1, 292, 640)"><g clip-path="url(#e79c13346b)"><g clip-path="url(#c08a91576c)"><path fill="#ffffff" d="M 1993.113281 3.066406 C 1989.148438 4.398438 1986.554688 6.199219 1984.851562 8.789062 C 1983.492188 10.871094 1980.121094 13.667969 1977.367188 15.003906 C 1974.484375 16.40625 1971.574219 18.957031 1970.511719 21.011719 C 1969.496094 22.976562 1967.117188 25.382812 1965.226562 26.359375 C 1963.335938 27.339844 1960.679688 29.695312 1959.324219 31.597656 C 1957.96875 33.5 1954.332031 36.515625 1951.238281 38.304688 C 1948.148438 40.09375 1943.132812 43.851562 1940.09375 46.65625 C 1937.058594 49.460938 1933.195312 52.105469 1931.511719 52.527344 C 1929.828125 52.949219 1928.449219 53.75 1928.449219 54.308594 C 1928.449219 56.089844 1921.164062 63.691406 1919.457031 63.691406 C 1918.550781 63.691406 1916.34375 65.347656 1914.546875 67.367188 C 1912.75 69.386719 1909.324219 72.042969 1906.933594 73.265625 C 1904.539062 74.488281 1900.597656 77.304688 1898.175781 79.527344 C 1895.75 81.746094 1891.667969 84.820312 1889.105469 86.355469 C 1886.542969 87.890625 1882.148438 91.414062 1879.347656 94.179688 C 1876.542969 96.945312 1873.4375 99.210938 1872.445312 99.210938 C 1871.457031 99.210938 1869.34375 100.761719 1867.75 102.652344 C 1866.15625 104.546875 1862.65625 107.21875 1859.96875 108.589844 C 1857.277344 109.960938 1854.238281 112.367188 1853.207031 113.9375 C 1852.175781 115.507812 1847.636719 118.992188 1843.113281 121.679688 C 1838.59375 124.367188 1834.046875 127.851562 1833.015625 129.425781 C 1831.984375 131.003906 1829.109375 133.1875 1826.625 134.285156 C 1824.140625 135.378906 1821.53125 137.542969 1820.824219 139.09375 C 1820.105469 140.671875 1817.265625 142.886719 1814.363281 144.132812 C 1811.515625 145.351562 1808.003906 148.011719 1806.5625 150.039062 C 1805.117188 152.066406 1801.980469 154.730469 1799.59375 155.953125 C 1797.207031 157.175781 1793.921875 159.621094 1792.292969 161.378906 C 1790.667969 163.140625 1786.9375 166.210938 1784.007812 168.207031 C 1781.078125 170.199219 1776.425781 173.875 1773.671875 176.367188 C 1770.917969 178.863281 1767.882812 180.90625 1766.921875 180.90625 C 1765.960938 180.90625 1762.617188 183.296875 1759.496094 186.21875 C 1747.96875 197 1743.070312 201.285156 1739.398438 203.789062 C 1737.328125 205.203125 1732.847656 208.65625 1729.4375 211.460938 C 1726.027344 214.265625 1721.6875 216.871094 1719.789062 217.25 C 1717.707031 217.667969 1715.9375 218.988281 1715.332031 220.578125 C 1714.214844 223.515625 1708.722656 228.261719 1706.4375 228.261719 C 1705.625 228.261719 1703.535156 230.132812 1701.792969 232.417969 C 1700.050781 234.703125 1696.542969 237.636719 1693.996094 238.933594 C 1691.453125 240.230469 1688.832031 242.300781 1688.171875 243.53125 C 1687.515625 244.757812 1684.542969 247.191406 1681.570312 248.933594 C 1678.601562 250.675781 1673.515625 254.453125 1670.277344 257.332031 C 1667.039062 260.210938 1663.089844 262.890625 1661.5 263.289062 C 1659.914062 263.683594 1657.1875 265.878906 1655.445312 268.164062 C 1653.707031 270.445312 1650.855469 272.921875 1649.113281 273.671875 C 1645.863281 275.0625 1636.378906 282.871094 1626.800781 292.027344 C 1623.835938 294.867188 1619.203125 298.132812 1616.503906 299.289062 C 1613.8125 300.445312 1610.65625 302.832031 1609.5 304.601562 C 1608.34375 306.367188 1605.050781 308.847656 1602.183594 310.113281 C 1599.320312 311.382812 1596.410156 313.472656 1595.722656 314.757812 C 1595.035156 316.042969 1592.230469 318.484375 1589.492188 320.183594 C 1586.75 321.878906 1583.25 324.835938 1581.707031 326.746094 C 1580.164062 328.65625 1576.15625 331.769531 1572.800781 333.664062 C 1569.445312 335.558594 1564.882812 338.984375 1562.65625 341.277344 C 1560.433594 343.574219 1556.949219 345.761719 1554.917969 346.144531 C 1552.230469 346.648438 1550.859375 347.789062 1549.90625 350.316406 C 1549.027344 352.644531 1546.984375 354.511719 1543.707031 355.980469 C 1541.019531 357.183594 1536.847656 360.148438 1534.433594 362.570312 C 1526.964844 370.066406 1516.707031 378.4375 1512.023438 380.847656 C 1509.566406 382.117188 1505.726562 385.054688 1503.496094 387.378906 C 1501.261719 389.703125 1497.746094 392.164062 1495.675781 392.84375 C 1493.609375 393.527344 1491.328125 395.382812 1490.605469 396.96875 C 1489.882812 398.554688 1486.691406 401.167969 1483.511719 402.78125 C 1480.332031 404.390625 1476.851562 407.050781 1475.78125 408.6875 C 1474.707031 410.328125 1471.292969 413.109375 1468.195312 414.871094 C 1465.097656 416.632812 1460.433594 420.0625 1457.828125 422.492188 C 1455.222656 424.921875 1451.375 427.773438 1449.277344 428.828125 C 1447.179688 429.882812 1444.871094 431.855469 1444.144531 433.210938 C 1443.417969 434.566406 1440.539062 436.691406 1437.746094 437.925781 C 1434.953125 439.160156 1431.238281 442.046875 1429.492188 444.335938 C 1427.746094 446.625 1424.347656 449.503906 1421.945312 450.734375 C 1419.539062 451.960938 1416.507812 454.164062 1415.203125 455.628906 C 1413.902344 457.097656 1409.90625 460.15625 1406.324219 462.429688 C 1402.742188 464.699219 1398.605469 468.046875 1397.128906 469.867188 C 1395.65625 471.683594 1392.582031 473.785156 1390.300781 474.539062 C 1387.742188 475.382812 1385.476562 477.226562 1384.375 479.347656 C 1383.398438 481.242188 1380.394531 483.914062 1377.707031 485.285156 C 1375.019531 486.65625 1370.898438 489.652344 1368.554688 491.9375 C 1360.652344 499.648438 1350.117188 507.929688 1345.0625 510.414062 C 1342.296875 511.769531 1339.734375 513.824219 1339.367188 514.984375 C 1338.566406 517.5 1332.703125 521.882812 1330.132812 521.882812 C 1329.128906 521.882812 1326.855469 523.785156 1325.085938 526.105469 C 1323.3125 528.429688 1319.957031 531.304688 1317.625 532.5 C 1315.292969 533.695312 1312.261719 536.199219 1310.886719 538.066406 C 1309.515625 539.933594 1305.519531 542.871094 1302.007812 544.589844 C 1298.496094 546.308594 1293.402344 549.898438 1290.6875 552.558594 C 1287.96875 555.222656 1284.691406 557.402344 1283.402344 557.402344 C 1281.972656 557.402344 1280.09375 559.042969 1278.582031 561.605469 C 1277.179688 563.976562 1274.355469 566.535156 1272.09375 567.480469 C 1269.890625 568.402344 1266.644531 570.871094 1264.882812 572.964844 C 1263.121094 575.054688 1259.328125 578.261719 1256.453125 580.082031 C 1253.578125 581.90625 1251.226562 583.953125 1251.226562 584.632812 C 1251.226562 585.308594 1247.632812 588.203125 1243.234375 591.058594 C 1238.839844 593.914062 1233.691406 597.886719 1231.792969 599.886719 C 1229.894531 601.886719 1226.648438 604.082031 1224.574219 604.765625 C 1222.503906 605.449219 1220.109375 607.320312 1219.25 608.925781 C 1218.390625 610.527344 1215.351562 612.972656 1212.492188 614.355469 C 1209.636719 615.738281 1206.4375 618.183594 1205.390625 619.785156 C 1204.339844 621.386719 1200.507812 624.730469 1196.867188 627.21875 C 1193.230469 629.707031 1188.699219 633.386719 1186.800781 635.394531 C 1184.902344 637.398438 1181.582031 639.625 1179.417969 640.339844 C 1177.21875 641.066406 1174.585938 643.160156 1173.445312 645.089844 C 1172.324219 646.984375 1169.207031 649.574219 1166.519531 650.835938 C 1163.828125 652.101562 1160.738281 654.496094 1159.648438 656.15625 C 1158.5625 657.816406 1155.945312 660.054688 1153.835938 661.132812 C 1151.722656 662.207031 1147.5 665.40625 1144.445312 668.238281 C 1141.390625 671.074219 1136.507812 674.550781 1133.59375 675.96875 C 1130.679688 677.382812 1127.585938 679.863281 1126.722656 681.480469 C 1125.855469 683.09375 1122.917969 685.375 1120.1875 686.546875 C 1117.457031 687.714844 1114.308594 690.070312 1113.191406 691.773438 C 1112.074219 693.484375 1109.160156 695.898438 1106.714844 697.144531 C 1104.269531 698.390625 1101.023438 700.945312 1099.496094 702.816406 C 1097.96875 704.691406 1094.324219 707.84375 1091.390625 709.828125 C 1088.460938 711.8125 1084.734375 714.875 1083.105469 716.636719 C 1081.476562 718.394531 1078.085938 720.890625 1075.570312 722.183594 C 1073.050781 723.476562 1069.003906 726.617188 1066.574219 729.171875 C 1064.148438 731.722656 1061.292969 733.8125 1060.230469 733.8125 C 1059.167969 733.8125 1056.554688 735.734375 1054.421875 738.078125 C 1052.289062 740.425781 1048.628906 743.324219 1046.289062 744.523438 C 1043.945312 745.71875 1041.167969 748.011719 1040.117188 749.613281 C 1039.070312 751.21875 1035.125 754.289062 1031.355469 756.441406 C 1027.582031 758.59375 1022.722656 762.328125 1020.546875 764.742188 C 1018.375 767.15625 1015.097656 769.75 1013.265625 770.511719 C 1010.679688 771.582031 1009.617188 773.128906 1008.53125 777.417969 C 1007.160156 782.824219 1007.203125 783 1010.488281 785.316406 C 1012.332031 786.617188 1015.707031 789.609375 1017.988281 791.960938 C 1020.265625 794.316406 1023.976562 797.183594 1026.230469 798.335938 C 1028.484375 799.492188 1031.285156 801.648438 1032.453125 803.132812 C 1033.617188 804.613281 1036.835938 806.9375 1039.597656 808.296875 C 1042.363281 809.652344 1048.066406 813.695312 1052.265625 817.277344 C 1056.46875 820.863281 1060.289062 823.792969 1060.753906 823.792969 C 1061.21875 823.792969 1062.722656 825.609375 1064.097656 827.832031 C 1065.46875 830.054688 1068.167969 832.421875 1070.09375 833.089844 C 1072.015625 833.761719 1075.710938 836.472656 1078.300781 839.117188 C 1080.890625 841.757812 1083.773438 843.921875 1084.707031 843.921875 C 1085.636719 843.921875 1088.988281 846.078125 1092.152344 848.714844 C 1095.316406 851.347656 1099.757812 854.398438 1102.027344 855.488281 C 1104.292969 856.578125 1108.289062 859.683594 1110.90625 862.386719 C 1113.523438 865.085938 1117.261719 868.117188 1119.214844 869.117188 C 1121.167969 870.121094 1124.332031 872.585938 1126.246094 874.597656 C 1128.15625 876.609375 1130.363281 878.253906 1131.148438 878.253906 C 1131.933594 878.253906 1135.164062 880.566406 1138.328125 883.386719 C 1141.492188 886.210938 1144.972656 889.007812 1146.0625 889.605469 C 1148.183594 890.761719 1160.222656 900.585938 1169.320312 908.578125 C 1172.367188 911.257812 1176.828125 914.363281 1179.230469 915.488281 C 1181.636719 916.609375 1184.441406 918.808594 1185.464844 920.371094 C 1186.488281 921.9375 1189.351562 924.246094 1191.824219 925.507812 C 1194.292969 926.769531 1197.824219 929.972656 1199.660156 932.628906 C 1201.5 935.28125 1203.460938 937.453125 1204.015625 937.453125 C 1204.566406 937.453125 1208.410156 940.328125 1212.550781 943.839844 C 1216.6875 947.351562 1221.710938 951.070312 1223.707031 952.105469 C 1225.703125 953.136719 1228.375 955.296875 1229.636719 956.90625 C 1230.902344 958.515625 1234.164062 960.71875 1236.882812 961.808594 C 1243.199219 964.335938 1244.121094 966.214844 1244.121094 976.523438 C 1244.121094 986.640625 1243.125 988.800781 1236.996094 991.925781 C 1234.421875 993.238281 1231.457031 995.625 1230.40625 997.230469 C 1229.359375 998.832031 1225.910156 1001.738281 1222.742188 1003.683594 C 1219.578125 1005.632812 1214.90625 1009.105469 1212.363281 1011.402344 C 1209.820312 1013.703125 1205.933594 1016.335938 1203.726562 1017.257812 C 1201.515625 1018.183594 1198.203125 1020.628906 1196.363281 1022.695312 C 1194.519531 1024.765625 1191.269531 1027.183594 1189.140625 1028.074219 C 1187.011719 1028.960938 1184.378906 1031.050781 1183.292969 1032.710938 C 1182.203125 1034.371094 1179.0625 1037.144531 1176.3125 1038.871094 C 1173.5625 1040.601562 1168.910156 1044.058594 1165.980469 1046.554688 C 1153.34375 1057.320312 1145.554688 1063.179688 1142.433594 1064.269531 C 1140.59375 1064.910156 1138.363281 1066.792969 1137.476562 1068.449219 C 1136.589844 1070.105469 1133.335938 1072.746094 1130.246094 1074.3125 C 1127.15625 1075.875 1124.054688 1078.230469 1123.351562 1079.542969 C 1122.648438 1080.855469 1119.832031 1083.335938 1117.09375 1085.058594 C 1114.351562 1086.777344 1109.351562 1090.53125 1105.980469 1093.398438 C 1102.605469 1096.269531 1098.066406 1099.109375 1095.886719 1099.710938 C 1093.058594 1100.492188 1091.535156 1101.832031 1090.570312 1104.394531 C 1089.671875 1106.773438 1087.765625 1108.589844 1084.917969 1109.78125 C 1082.554688 1110.769531 1078.117188 1113.957031 1075.054688 1116.867188 C 1071.792969 1119.96875 1068.527344 1123.066406 1065.253906 1126.152344 C 1062.925781 1128.351562 1058.664062 1131.628906 1055.785156 1133.4375 C 1052.902344 1135.246094 1048.164062 1138.8125 1045.253906 1141.359375 C 1042.34375 1143.90625 1038.460938 1146.292969 1036.621094 1146.660156 C 1034.28125 1147.128906 1032.792969 1148.488281 1031.667969 1151.179688 C 1030.5625 1153.832031 1028.550781 1155.695312 1025.191406 1157.175781 C 1022.511719 1158.359375 1019.511719 1160.554688 1018.527344 1162.058594 C 1017.542969 1163.5625 1013.820312 1166.4375 1010.257812 1168.449219 C 1006.695312 1170.457031 1003.78125 1172.496094 1003.78125 1172.972656 C 1003.78125 1173.453125 1002.484375 1174.539062 1000.898438 1175.386719 C 998.359375 1176.746094 997.410156 1176.578125 992.90625 1173.957031 C 990.09375 1172.320312 986.046875 1170.601562 983.90625 1170.140625 C 981.765625 1169.679688 978.261719 1167.5 976.121094 1165.292969 C 973.980469 1163.089844 969.171875 1159.210938 965.433594 1156.675781 C 961.695312 1154.140625 957.863281 1150.957031 956.914062 1149.601562 C 955.964844 1148.246094 952.546875 1145.699219 949.316406 1143.941406 C 946.085938 1142.179688 943.128906 1139.746094 942.742188 1138.527344 C 942.355469 1137.308594 939.519531 1135.035156 936.441406 1133.472656 C 933.332031 1131.898438 930.230469 1129.292969 929.464844 1127.609375 C 928.707031 1125.945312 926.171875 1123.785156 923.832031 1122.804688 C 921.492188 1121.828125 916.8125 1118.710938 913.429688 1115.875 C 910.050781 1113.039062 905.34375 1109.550781 902.96875 1108.128906 C 900.59375 1106.699219 897.757812 1104.167969 896.660156 1102.496094 C 895.566406 1100.824219 892.820312 1098.683594 890.554688 1097.738281 C 888.289062 1096.792969 885.398438 1094.257812 884.125 1092.101562 C 882.511719 1089.363281 880.363281 1087.75 876.988281 1086.738281 C 873.832031 1085.792969 871.492188 1084.128906 870.234375 1081.933594 C 869.171875 1080.082031 866.152344 1077.507812 863.523438 1076.207031 C 858.460938 1073.703125 846.988281 1064.507812 838.488281 1056.144531 C 835.679688 1053.378906 832.476562 1051.113281 831.375 1051.113281 C 830.273438 1051.113281 827.402344 1049.046875 825 1046.519531 C 822.597656 1043.992188 818.667969 1040.996094 816.265625 1039.855469 C 813.863281 1038.714844 811.34375 1036.75 810.671875 1035.488281 C 809.996094 1034.230469 805.742188 1030.804688 801.222656 1027.878906 C 796.699219 1024.953125 792.183594 1021.3125 791.183594 1019.789062 C 790.183594 1018.265625 787.773438 1016.359375 785.824219 1015.550781 C 783.878906 1014.742188 780.574219 1012.097656 778.484375 1009.671875 C 776.394531 1007.246094 773.449219 1004.875 771.941406 1004.402344 C 770.433594 1003.933594 766.550781 1001.195312 763.316406 998.324219 C 760.085938 995.449219 757.042969 993.101562 756.5625 993.101562 C 756.082031 993.101562 753.066406 990.691406 749.855469 987.746094 C 746.648438 984.800781 741.488281 980.761719 738.390625 978.773438 C 735.292969 976.785156 732.464844 974.238281 732.105469 973.113281 C 731.75 971.992188 729.035156 969.894531 726.070312 968.453125 C 723.105469 967.015625 719.78125 964.261719 718.679688 962.332031 C 717.496094 960.269531 715.3125 958.527344 713.371094 958.101562 C 711.554688 957.699219 708.265625 955.515625 706.058594 953.242188 C 703.851562 950.96875 699.476562 947.492188 696.335938 945.511719 C 690.074219 941.566406 681.960938 934.847656 674.191406 927.171875 C 671.429688 924.449219 667.710938 921.855469 665.921875 921.40625 C 664.132812 920.957031 661.246094 918.804688 659.503906 916.621094 C 657.761719 914.4375 654.730469 911.988281 652.761719 911.171875 C 649.148438 909.675781 633.726562 897.925781 626.097656 890.851562 C 623.816406 888.742188 620.417969 886.246094 618.542969 885.308594 C 616.664062 884.375 613.804688 881.871094 612.1875 879.746094 C 610.566406 877.625 608.480469 875.886719 607.554688 875.886719 C 606.625 875.886719 603.359375 873.5625 600.296875 870.714844 C 597.230469 867.871094 593.089844 864.710938 591.097656 863.695312 C 589.101562 862.679688 584.839844 859.492188 581.625 856.609375 C 578.410156 853.726562 574.054688 850.480469 571.941406 849.398438 C 569.832031 848.3125 567.214844 846.0625 566.125 844.402344 C 565.035156 842.738281 562.097656 840.558594 559.589844 839.558594 C 557.085938 838.554688 554.15625 836.242188 553.078125 834.421875 C 552 832.597656 549.101562 830.3125 546.632812 829.339844 C 544.085938 828.339844 541.179688 825.992188 539.917969 823.917969 C 538.691406 821.90625 534.273438 818.050781 530.097656 815.351562 C 525.917969 812.652344 521.800781 809.445312 520.941406 808.222656 C 520.085938 807 517.339844 804.960938 514.839844 803.683594 C 512.339844 802.40625 509.128906 799.886719 507.707031 798.074219 C 506.285156 796.265625 502.910156 793.722656 500.210938 792.417969 C 493.988281 789.417969 492.683594 785.476562 494.683594 775.722656 C 495.988281 769.371094 496.828125 768.066406 503.980469 761.285156 C 512.070312 753.613281 525.890625 742.496094 533.554688 737.492188 C 535.941406 735.933594 540.144531 732.605469 542.898438 730.09375 C 545.652344 727.578125 548.703125 725.527344 549.679688 725.527344 C 550.65625 725.527344 552.308594 724.222656 553.351562 722.628906 C 554.398438 721.035156 558.003906 718.003906 561.371094 715.894531 C 564.738281 713.785156 570.242188 709.761719 573.597656 706.953125 C 576.960938 704.144531 580.28125 701.847656 580.984375 701.847656 C 581.683594 701.847656 584.9375 699.183594 588.210938 695.925781 C 591.484375 692.671875 594.769531 690.007812 595.511719 690.007812 C 596.253906 690.007812 598.816406 688.007812 601.207031 685.566406 C 606.433594 680.226562 621.328125 667.679688 624.453125 665.984375 C 625.683594 665.316406 629.085938 662.796875 632.015625 660.386719 C 634.945312 657.972656 638.996094 655.15625 641.015625 654.121094 C 643.035156 653.085938 645.570312 650.894531 646.652344 649.246094 C 647.730469 647.597656 650.339844 645.371094 652.449219 644.292969 C 654.5625 643.214844 658.753906 640.144531 661.765625 637.460938 C 664.777344 634.777344 671.894531 629.121094 677.578125 624.890625 C 683.265625 620.65625 690.285156 615.199219 693.183594 612.757812 C 696.078125 610.320312 699.65625 608.023438 701.132812 607.652344 C 702.609375 607.28125 704.746094 605.410156 705.878906 603.488281 C 707.011719 601.566406 709.90625 598.988281 712.304688 597.757812 C 714.707031 596.527344 718 594.066406 719.628906 592.285156 C 721.257812 590.503906 725.335938 587.273438 728.691406 585.105469 C 732.046875 582.933594 737.273438 579.011719 740.304688 576.382812 C 743.339844 573.757812 746.300781 571.609375 746.886719 571.609375 C 747.472656 571.609375 750.082031 569.460938 752.6875 566.832031 C 755.289062 564.203125 759.019531 561.492188 760.972656 560.8125 C 762.925781 560.132812 764.863281 558.507812 765.273438 557.207031 C 765.6875 555.910156 768.285156 553.410156 771.050781 551.65625 C 776.578125 548.148438 787.757812 539.460938 796.746094 531.675781 C 799.929688 528.921875 803.992188 525.910156 805.777344 524.980469 C 807.558594 524.054688 810.351562 521.859375 811.976562 520.105469 C 813.605469 518.351562 816.9375 515.894531 819.386719 514.636719 C 821.832031 513.382812 824.496094 511.261719 825.304688 509.917969 C 826.113281 508.578125 828.730469 506.472656 831.117188 505.238281 C 833.503906 504.003906 838.492188 500.339844 842.199219 497.097656 C 845.902344 493.855469 850.609375 490.644531 852.65625 489.964844 C 854.761719 489.265625 857.273438 487.148438 858.441406 485.09375 C 859.59375 483.070312 862.480469 480.617188 864.964844 479.558594 C 867.414062 478.511719 870.492188 476.019531 871.800781 474.019531 C 873.109375 472.019531 876.15625 469.453125 878.570312 468.316406 C 880.980469 467.179688 883.84375 464.894531 884.929688 463.234375 C 886.015625 461.578125 889.097656 458.9375 891.777344 457.363281 C 894.457031 455.792969 898.511719 452.570312 900.785156 450.203125 C 903.058594 447.835938 907.316406 444.667969 910.246094 443.167969 C 913.175781 441.664062 916.753906 438.828125 918.195312 436.867188 C 919.636719 434.90625 922.566406 432.71875 924.707031 432.011719 C 926.847656 431.300781 929.664062 429.121094 930.964844 427.164062 C 932.269531 425.203125 934.34375 423.277344 935.578125 422.882812 C 936.8125 422.488281 940.007812 420.199219 942.683594 417.796875 C 945.355469 415.398438 951.40625 410.613281 956.125 407.164062 C 960.84375 403.71875 964.707031 400.46875 964.707031 399.949219 C 964.707031 399.425781 966.800781 397.964844 969.363281 396.699219 C 971.921875 395.433594 975.445312 392.695312 977.199219 390.613281 C 978.949219 388.53125 982.105469 386.109375 984.210938 385.230469 C 986.3125 384.347656 989.214844 381.972656 990.65625 379.949219 C 992.097656 377.925781 995.773438 374.847656 998.824219 373.113281 C 1001.875 371.378906 1006.234375 368.238281 1008.515625 366.136719 C 1010.792969 364.03125 1014.523438 361.390625 1016.804688 360.269531 C 1019.082031 359.144531 1022.191406 356.679688 1023.714844 354.789062 C 1025.238281 352.894531 1027.917969 350.605469 1029.671875 349.699219 C 1031.425781 348.792969 1035.335938 345.738281 1038.363281 342.914062 C 1046.097656 335.695312 1052.757812 330.277344 1058.574219 326.480469 C 1061.320312 324.6875 1066.496094 320.765625 1070.074219 317.773438 C 1073.648438 314.777344 1077.210938 312.324219 1077.984375 312.324219 C 1078.757812 312.324219 1080.539062 310.714844 1081.9375 308.746094 C 1083.339844 306.777344 1086.566406 304.105469 1089.105469 302.808594 C 1091.648438 301.515625 1094.621094 299.089844 1095.710938 297.421875 C 1096.800781 295.757812 1100.140625 292.96875 1103.128906 291.222656 C 1109.234375 287.65625 1119.605469 279.886719 1128.285156 272.367188 C 1131.480469 269.597656 1134.921875 267.335938 1135.929688 267.335938 C 1136.941406 267.335938 1139.453125 265.417969 1141.515625 263.078125 C 1143.574219 260.734375 1147.261719 257.792969 1149.710938 256.539062 C 1152.15625 255.28125 1154.820312 253.1875 1155.628906 251.878906 C 1156.4375 250.570312 1160.589844 247.394531 1164.851562 244.8125 C 1169.113281 242.234375 1174.386719 238.28125 1176.574219 236.023438 C 1178.757812 233.769531 1182.011719 231.601562 1183.804688 231.210938 C 1185.972656 230.734375 1187.566406 229.277344 1188.570312 226.851562 C 1189.597656 224.371094 1191.695312 222.492188 1195.136719 220.972656 C 1197.917969 219.742188 1201.332031 217.140625 1202.71875 215.195312 C 1204.101562 213.246094 1206.929688 210.792969 1208.992188 209.742188 C 1211.058594 208.6875 1215.09375 205.472656 1217.957031 202.59375 C 1220.824219 199.714844 1224.617188 196.605469 1226.394531 195.6875 C 1228.984375 194.347656 1233.46875 186.863281 1233.46875 183.871094 C 1233.46875 183.578125 1231.734375 182.453125 1229.617188 181.375 C 1227.503906 180.300781 1224.25 177.601562 1222.390625 175.382812 C 1220.535156 173.160156 1215.882812 169.761719 1212.054688 167.832031 C 1208.230469 165.902344 1204.207031 162.960938 1203.121094 161.296875 C 1202.027344 159.632812 1199.097656 157.230469 1196.601562 155.960938 C 1194.105469 154.6875 1191.175781 152.289062 1190.089844 150.632812 C 1189.003906 148.976562 1186.117188 146.597656 1183.671875 145.351562 C 1181.226562 144.105469 1177.976562 141.5625 1176.453125 139.703125 C 1174.925781 137.839844 1171.191406 134.898438 1168.152344 133.164062 C 1165.113281 131.429688 1161.0625 128.445312 1159.148438 126.535156 C 1157.234375 124.621094 1153.691406 121.710938 1151.273438 120.070312 C 1148.855469 118.429688 1145.785156 115.699219 1144.453125 114.003906 C 1143.121094 112.3125 1140.09375 110.144531 1137.726562 109.195312 C 1135.359375 108.246094 1132.148438 105.601562 1130.59375 103.320312 C 1129.039062 101.039062 1126.425781 98.839844 1124.789062 98.429688 C 1123.15625 98.019531 1118.992188 95.230469 1115.542969 92.230469 C 1107.015625 84.824219 1097.9375 77.84375 1092.742188 74.699219 C 1090.371094 73.265625 1087 70.496094 1085.246094 68.542969 C 1083.492188 66.59375 1079.933594 63.910156 1077.332031 62.585938 C 1074.726562 61.257812 1071.664062 58.589844 1070.523438 56.65625 C 1069.378906 54.722656 1066.917969 52.503906 1065.046875 51.730469 C 1063.179688 50.957031 1060.257812 48.496094 1058.554688 46.265625 C 1056.851562 44.03125 1052.488281 40.6875 1048.859375 38.832031 C 1045.226562 36.976562 1040.765625 33.546875 1038.945312 31.214844 C 1037.121094 28.886719 1033.835938 26.222656 1031.636719 25.304688 C 1029.441406 24.386719 1026.722656 22.234375 1025.597656 20.515625 C 1024.476562 18.800781 1021.902344 16.566406 1019.882812 15.550781 C 1017.863281 14.535156 1014.347656 11.9375 1012.066406 9.78125 C 1006.222656 4.242188 999.171875 1.699219 991.652344 2.421875 C 986.453125 2.921875 984.996094 3.644531 981.929688 7.238281 C 979.945312 9.566406 975.394531 12.890625 971.8125 14.632812 C 968.230469 16.375 963.648438 19.703125 961.625 22.035156 C 959.605469 24.363281 956.144531 26.875 953.929688 27.609375 C 951.570312 28.398438 949.269531 30.261719 948.363281 32.121094 C 947.511719 33.863281 945.113281 36.144531 943.035156 37.195312 C 940.953125 38.242188 937.09375 41.304688 934.453125 43.996094 C 929.152344 49.402344 915.101562 61.121094 911.773438 62.910156 C 910.609375 63.539062 907.214844 66.304688 904.238281 69.054688 C 901.257812 71.808594 897.597656 74.445312 896.105469 74.917969 C 894.613281 75.394531 891.152344 78.121094 888.40625 80.984375 C 885.664062 83.847656 882.570312 86.1875 881.527344 86.1875 C 880.488281 86.1875 878.132812 87.980469 876.292969 90.171875 C 874.457031 92.363281 870.554688 95.632812 867.625 97.441406 C 864.695312 99.25 860.003906 102.824219 857.199219 105.382812 C 854.394531 107.945312 850.609375 110.558594 848.785156 111.191406 C 846.960938 111.828125 844.769531 113.652344 843.917969 115.246094 C 843.066406 116.835938 839.914062 119.25 836.910156 120.605469 C 833.8125 122.007812 830.613281 124.535156 829.511719 126.449219 C 828.449219 128.308594 825.796875 130.734375 823.625 131.84375 C 821.453125 132.957031 817.46875 135.878906 814.777344 138.339844 C 812.082031 140.804688 807.820312 144.136719 805.304688 145.742188 C 802.789062 147.351562 799.175781 150.316406 797.277344 152.328125 C 795.382812 154.339844 792.183594 156.535156 790.175781 157.203125 C 788.15625 157.875 785.613281 160.015625 784.492188 161.992188 C 783.261719 164.15625 780.378906 166.453125 777.175781 167.828125 C 774.269531 169.074219 771.3125 171.175781 770.605469 172.496094 C 769.898438 173.816406 766.796875 176.609375 763.714844 178.703125 C 757.5625 182.878906 747.53125 190.691406 738.761719 198.128906 C 735.652344 200.765625 731.542969 203.574219 729.625 204.371094 C 727.710938 205.167969 725.234375 207.40625 724.125 209.34375 C 723.015625 211.285156 720.617188 213.515625 718.796875 214.300781 C 716.976562 215.082031 713.011719 217.878906 709.992188 220.515625 C 694.230469 234.25 686.082031 240.101562 682.722656 240.101562 C 681.4375 240.101562 679.492188 241.777344 678.167969 244.019531 C 676.898438 246.171875 673.851562 248.890625 671.402344 250.054688 C 668.949219 251.21875 665.078125 253.984375 662.800781 256.195312 C 652.050781 266.632812 648.597656 269.609375 642.035156 274.089844 C 638.152344 276.742188 633.699219 280.285156 632.136719 281.96875 C 630.578125 283.648438 627.523438 285.609375 625.351562 286.328125 C 623.179688 287.046875 620.28125 289.203125 618.914062 291.125 C 617.546875 293.046875 614.347656 295.679688 611.804688 296.976562 C 609.265625 298.273438 606.335938 300.632812 605.292969 302.222656 C 604.25 303.8125 601.179688 306.429688 598.46875 308.039062 C 595.753906 309.644531 591.140625 313.175781 588.210938 315.878906 C 585.28125 318.585938 580.964844 321.789062 578.625 323.003906 C 576.28125 324.21875 573.441406 326.617188 572.316406 328.339844 C 571.1875 330.058594 568.382812 332.253906 566.078125 333.214844 C 563.773438 334.179688 560.554688 336.550781 558.925781 338.488281 C 557.292969 340.425781 554.292969 342.859375 552.253906 343.898438 C 550.214844 344.9375 546.09375 348.066406 543.09375 350.847656 C 540.09375 353.632812 535.511719 356.996094 532.914062 358.320312 C 530.316406 359.644531 527.277344 362.125 526.15625 363.832031 C 525.039062 365.539062 521.890625 367.894531 519.160156 369.0625 C 516.433594 370.234375 513.453125 372.582031 512.542969 374.285156 C 511.632812 375.984375 509.121094 377.960938 506.960938 378.675781 C 504.804688 379.386719 501.367188 382.082031 499.324219 384.660156 C 497.277344 387.242188 493.933594 390.207031 491.886719 391.25 C 489.839844 392.292969 485.71875 395.414062 482.726562 398.191406 C 479.738281 400.964844 475.742188 404.039062 473.847656 405.027344 C 471.957031 406.011719 469.074219 408.25 467.445312 410.003906 C 465.820312 411.757812 462.496094 414.210938 460.066406 415.457031 C 457.632812 416.707031 454.757812 419.078125 453.671875 420.730469 C 452.589844 422.386719 450.050781 424.578125 448.03125 425.609375 C 446.015625 426.640625 441.949219 429.714844 439.003906 432.449219 C 436.054688 435.183594 432.0625 438.417969 430.121094 439.636719 C 428.183594 440.859375 424.414062 443.820312 421.738281 446.21875 C 419.0625 448.617188 415.230469 450.945312 413.222656 451.386719 C 410.777344 451.921875 408.769531 453.550781 407.140625 456.3125 C 405.804688 458.578125 402.972656 461.160156 400.855469 462.046875 C 398.734375 462.933594 395.789062 465.300781 394.308594 467.308594 C 392.828125 469.3125 389.632812 471.96875 387.207031 473.210938 C 384.78125 474.453125 381.394531 477.042969 379.683594 478.964844 C 377.972656 480.890625 373.445312 484.375 369.621094 486.710938 C 365.796875 489.046875 361.980469 492.082031 361.136719 493.460938 C 360.296875 494.835938 357.28125 496.960938 354.4375 498.179688 C 351.5 499.441406 348.929688 501.457031 348.488281 502.847656 C 348.058594 504.199219 345.214844 506.757812 342.164062 508.542969 C 339.117188 510.324219 334.734375 513.65625 332.429688 515.945312 C 324.976562 523.347656 309.886719 534.90625 307.675781 534.90625 C 306.492188 534.90625 304.0625 536.828125 302.269531 539.175781 C 300.476562 541.523438 297.296875 544.164062 295.199219 545.039062 C 293.101562 545.917969 290.5 547.984375 289.417969 549.636719 C 288.335938 551.285156 285.332031 553.71875 282.746094 555.039062 C 280.15625 556.359375 276.332031 559.316406 274.242188 561.613281 C 272.152344 563.90625 268.550781 566.925781 266.234375 568.320312 C 263.921875 569.710938 259.800781 572.863281 257.078125 575.324219 C 254.355469 577.785156 250.359375 580.539062 248.199219 581.441406 C 246.039062 582.34375 243.488281 584.546875 242.535156 586.335938 C 241.578125 588.121094 238.71875 590.644531 236.179688 591.9375 C 233.644531 593.234375 229.601562 596.25 227.195312 598.640625 C 220.578125 605.21875 207.433594 615.722656 202.917969 618.039062 C 200.707031 619.171875 197.839844 621.449219 196.542969 623.097656 C 195.246094 624.746094 192.402344 626.84375 190.222656 627.753906 C 188.039062 628.667969 185.007812 631.109375 183.476562 633.179688 C 181.949219 635.25 179.019531 637.652344 176.964844 638.519531 C 174.914062 639.386719 171.371094 642.046875 169.089844 644.433594 C 166.8125 646.816406 163.398438 649.578125 161.503906 650.570312 C 159.609375 651.5625 155.617188 654.644531 152.625 657.417969 C 149.632812 660.191406 145.535156 663.304688 143.515625 664.335938 C 141.496094 665.363281 138.929688 667.597656 137.816406 669.300781 C 136.699219 671.003906 133.527344 673.367188 130.761719 674.550781 C 128 675.734375 124.824219 678.101562 123.707031 679.804688 C 122.585938 681.511719 119.617188 684.207031 117.105469 685.792969 C 114.597656 687.378906 111.203125 689.90625 109.566406 691.410156 C 107.929688 692.917969 104.328125 695.480469 101.558594 697.109375 C 98.789062 698.738281 93.914062 702.601562 90.71875 705.695312 C 87.527344 708.785156 83.90625 711.316406 82.667969 711.316406 C 81.386719 711.316406 79.753906 712.714844 78.863281 714.574219 C 78.007812 716.363281 74.820312 719.171875 71.78125 720.816406 C 68.742188 722.457031 65.109375 725.265625 63.699219 727.054688 C 62.292969 728.84375 59.652344 731.078125 57.835938 732.019531 C 56.015625 732.957031 52.425781 735.746094 49.855469 738.210938 C 41.367188 746.355469 28.636719 756.246094 24.320312 758.050781 C 21.980469 759.027344 19.316406 760.898438 18.398438 762.210938 C 17.480469 763.523438 14.378906 765.832031 11.511719 767.34375 C 7.597656 769.40625 5.617188 771.507812 3.578125 775.765625 C 2.085938 778.890625 1.019531 781.875 1.210938 782.40625 C 1.90625 784.316406 19.414062 796.550781 23.363281 797.878906 C 29.015625 799.785156 36.355469 805.414062 50.101562 818.398438 C 56.613281 824.546875 64.394531 831.339844 67.398438 833.492188 C 81.273438 843.453125 84.582031 845.941406 88.511719 849.382812 C 90.828125 851.410156 94.324219 853.953125 96.277344 855.03125 C 98.230469 856.113281 103.558594 860.195312 108.117188 864.101562 C 112.675781 868.011719 120.398438 874.082031 125.285156 877.589844 C 130.167969 881.097656 135.453125 885.347656 137.035156 887.03125 C 138.613281 888.714844 140.507812 890.09375 141.25 890.09375 C 141.988281 890.09375 145.425781 892.515625 148.894531 895.472656 C 152.359375 898.429688 156.589844 901.570312 158.296875 902.457031 C 160.003906 903.339844 162.464844 905.246094 163.765625 906.691406 C 165.066406 908.140625 169.058594 911.328125 172.640625 913.773438 C 176.222656 916.21875 180.21875 919.414062 181.523438 920.875 C 182.824219 922.335938 186.6875 925.324219 190.105469 927.515625 C 193.523438 929.710938 196.320312 932.027344 196.320312 932.671875 C 196.320312 933.316406 198.050781 934.722656 200.167969 935.800781 C 202.285156 936.878906 206.8125 940.222656 210.226562 943.230469 C 223.117188 954.582031 227.851562 958.480469 233.023438 962.003906 C 235.953125 964 239.917969 967.28125 241.828125 969.300781 C 243.742188 971.320312 245.984375 972.972656 246.816406 972.972656 C 247.644531 972.972656 250.792969 975.367188 253.804688 978.300781 C 256.820312 981.230469 259.804688 983.628906 260.433594 983.628906 C 261.066406 983.628906 264.34375 986.210938 267.726562 989.371094 C 271.105469 992.527344 274.761719 995.59375 275.855469 996.179688 C 278.375 997.53125 290.929688 1007.597656 298.027344 1013.957031 C 301.019531 1016.640625 305.066406 1019.648438 307.019531 1020.644531 C 308.972656 1021.644531 312.316406 1024.375 314.449219 1026.71875 C 316.582031 1029.066406 318.886719 1030.984375 319.570312 1030.984375 C 320.699219 1030.984375 327.6875 1036.464844 341.949219 1048.535156 C 344.878906 1051.015625 349.8125 1054.769531 352.917969 1056.882812 C 356.019531 1058.996094 359.34375 1061.917969 360.300781 1063.378906 C 361.253906 1064.835938 364.085938 1066.9375 366.589844 1068.039062 C 369.09375 1069.144531 371.898438 1071.464844 372.824219 1073.195312 C 373.75 1074.925781 376.347656 1077.113281 378.601562 1078.054688 C 380.851562 1078.996094 385.382812 1082.023438 388.664062 1084.78125 C 391.949219 1087.542969 397.101562 1091.46875 400.117188 1093.503906 C 403.128906 1095.539062 405.90625 1098.007812 406.28125 1098.992188 C 406.660156 1099.976562 409.398438 1101.925781 412.371094 1103.320312 C 415.34375 1104.71875 418.859375 1107.242188 420.1875 1108.929688 C 421.515625 1110.617188 424.386719 1113.082031 426.570312 1114.410156 C 428.753906 1115.738281 435.777344 1121.085938 442.179688 1126.292969 C 448.582031 1131.503906 455.953125 1137.328125 458.5625 1139.242188 C 461.167969 1141.152344 464.285156 1143.964844 465.488281 1145.492188 C 466.6875 1147.015625 469.742188 1149.320312 472.277344 1150.613281 C 474.8125 1151.90625 477.769531 1154.3125 478.851562 1155.964844 C 479.933594 1157.617188 482.46875 1159.664062 484.492188 1160.515625 C 486.511719 1161.367188 490.832031 1164.25 494.085938 1166.921875 C 497.34375 1169.589844 502.9375 1174.1875 506.519531 1177.132812 C 510.097656 1180.078125 515.792969 1184.335938 519.167969 1186.59375 C 522.546875 1188.847656 525.894531 1191.789062 526.613281 1193.125 C 527.328125 1194.460938 528.714844 1195.554688 529.695312 1195.554688 C 530.679688 1195.554688 533.988281 1197.902344 537.054688 1200.769531 C 540.121094 1203.636719 545.09375 1207.765625 548.109375 1209.945312 C 563.550781 1221.113281 571.808594 1227.65625 583.363281 1237.882812 C 586.488281 1240.648438 589.574219 1242.914062 590.222656 1242.914062 C 590.867188 1242.914062 594.445312 1245.582031 598.171875 1248.847656 C 601.902344 1252.109375 606.535156 1255.597656 608.46875 1256.597656 C 612.171875 1258.511719 622.648438 1267.140625 629.648438 1274.039062 C 631.929688 1276.285156 635.570312 1279.03125 637.742188 1280.136719 C 639.917969 1281.246094 642.582031 1283.710938 643.664062 1285.617188 C 644.746094 1287.523438 647.285156 1289.628906 649.304688 1290.300781 C 651.328125 1290.976562 654.257812 1292.910156 655.816406 1294.605469 C 657.378906 1296.300781 662.121094 1299.949219 666.351562 1302.710938 C 670.585938 1305.472656 675.613281 1309.398438 677.523438 1311.433594 C 679.4375 1313.46875 681.703125 1315.136719 682.554688 1315.136719 C 683.410156 1315.136719 686.164062 1317.1875 688.675781 1319.699219 C 691.183594 1322.207031 695.445312 1325.5 698.144531 1327.019531 C 700.84375 1328.539062 703.054688 1330.175781 703.054688 1330.664062 C 703.054688 1331.148438 707.582031 1334.816406 713.117188 1338.8125 C 718.652344 1342.808594 723.183594 1346.441406 723.183594 1346.886719 C 723.183594 1347.332031 725.582031 1349.207031 728.511719 1351.058594 C 731.441406 1352.90625 734.789062 1355.632812 735.953125 1357.113281 C 737.117188 1358.59375 739.914062 1360.726562 742.167969 1361.855469 C 744.421875 1362.988281 747.867188 1365.488281 749.820312 1367.421875 C 751.773438 1369.351562 755.863281 1372.628906 758.90625 1374.703125 C 768.667969 1381.363281 775.652344 1386.644531 781.152344 1391.535156 C 784.105469 1394.160156 788.082031 1397.089844 789.984375 1398.046875 C 791.890625 1399.003906 794.449219 1401.476562 795.671875 1403.539062 C 796.894531 1405.605469 799.542969 1407.871094 801.5625 1408.574219 C 803.582031 1409.277344 807.683594 1412.023438 810.675781 1414.671875 C 817.925781 1421.089844 825.613281 1426.917969 832.054688 1430.878906 C 834.957031 1432.664062 839.269531 1436.058594 841.644531 1438.425781 C 844.015625 1440.792969 847.070312 1443.082031 848.421875 1443.511719 C 849.777344 1443.941406 853.453125 1446.660156 856.59375 1449.554688 C 859.730469 1452.449219 862.667969 1454.820312 863.121094 1454.828125 C 863.578125 1454.835938 867.039062 1457.375 870.820312 1460.472656 C 874.597656 1463.566406 879.890625 1467.59375 882.582031 1469.417969 C 885.277344 1471.242188 888.875 1474.300781 890.582031 1476.21875 C 892.292969 1478.136719 894.199219 1479.703125 894.824219 1479.703125 C 895.449219 1479.703125 898.660156 1482.101562 901.960938 1485.03125 C 905.257812 1487.960938 908.472656 1490.359375 909.097656 1490.359375 C 909.726562 1490.359375 912.449219 1492.359375 915.148438 1494.800781 C 917.851562 1497.242188 922.332031 1500.839844 925.105469 1502.792969 C 938.445312 1512.179688 947.28125 1519.535156 948.839844 1522.550781 C 949.785156 1524.375 952.402344 1526.644531 954.660156 1527.585938 C 957.25 1528.667969 959.472656 1530.785156 960.679688 1533.316406 C 961.945312 1535.972656 963.964844 1537.828125 966.632812 1538.792969 C 969.371094 1539.785156 971.402344 1541.703125 972.96875 1544.765625 C 974.3125 1547.402344 976.410156 1549.5625 978.015625 1549.964844 C 979.523438 1550.34375 983.871094 1553.070312 987.675781 1556.027344 C 995.894531 1562.40625 999.410156 1562.859375 1001.992188 1557.867188 C 1002.996094 1555.921875 1005.429688 1553.5 1007.398438 1552.484375 C 1009.363281 1551.464844 1015.703125 1545.996094 1021.476562 1540.328125 C 1030.777344 1531.207031 1036.042969 1526.480469 1056.210938 1509.160156 C 1058.957031 1506.804688 1063.464844 1503.730469 1066.234375 1502.328125 C 1069 1500.929688 1071.265625 1499.289062 1071.265625 1498.679688 C 1071.265625 1498.074219 1073.796875 1495.855469 1076.886719 1493.753906 C 1079.980469 1491.652344 1084.910156 1487.839844 1087.839844 1485.289062 C 1090.769531 1482.734375 1095.03125 1479.683594 1097.3125 1478.507812 C 1099.589844 1477.332031 1102.960938 1474.785156 1104.796875 1472.847656 C 1106.636719 1470.914062 1110.171875 1468.414062 1112.652344 1467.296875 C 1115.136719 1466.175781 1117.738281 1464.003906 1118.4375 1462.46875 C 1119.140625 1460.929688 1121.730469 1458.636719 1124.199219 1457.371094 C 1126.667969 1456.105469 1130.019531 1453.628906 1131.644531 1451.863281 C 1133.273438 1450.101562 1137.535156 1446.652344 1141.117188 1444.199219 C 1144.699219 1441.746094 1148.695312 1438.550781 1149.996094 1437.097656 C 1151.300781 1435.648438 1154.8125 1433.214844 1157.804688 1431.699219 C 1160.796875 1430.183594 1164.054688 1427.703125 1165.042969 1426.191406 C 1166.035156 1424.679688 1168.382812 1422.667969 1170.261719 1421.714844 C 1172.140625 1420.765625 1176.195312 1417.839844 1179.273438 1415.214844 C 1190.691406 1405.476562 1193.972656 1402.9375 1201.035156 1398.390625 C 1205.011719 1395.828125 1210.390625 1391.5 1212.988281 1388.769531 C 1215.582031 1386.039062 1218.570312 1383.804688 1219.625 1383.804688 C 1220.679688 1383.804688 1222.128906 1382.710938 1222.84375 1381.375 C 1223.558594 1380.035156 1227.042969 1377.089844 1230.582031 1374.824219 C 1234.121094 1372.558594 1237.019531 1370.1875 1237.019531 1369.550781 C 1237.019531 1368.917969 1240.613281 1366.078125 1245.011719 1363.246094 C 1249.40625 1360.414062 1254.066406 1356.890625 1255.371094 1355.417969 C 1256.671875 1353.941406 1260.554688 1350.929688 1263.996094 1348.722656 C 1267.4375 1346.515625 1270.542969 1343.953125 1270.894531 1343.03125 C 1271.25 1342.109375 1273.882812 1340.253906 1276.742188 1338.910156 C 1279.601562 1337.566406 1282.835938 1335.101562 1283.925781 1333.433594 C 1285.019531 1331.769531 1287.566406 1329.570312 1289.582031 1328.554688 C 1291.605469 1327.535156 1295.414062 1324.5 1298.046875 1321.808594 C 1303.925781 1315.796875 1316.84375 1305.492188 1323.015625 1301.886719 C 1325.53125 1300.414062 1328.570312 1297.988281 1329.765625 1296.492188 C 1330.964844 1295 1333.628906 1292.929688 1335.6875 1291.894531 C 1337.746094 1290.859375 1341.296875 1288.234375 1343.574219 1286.066406 C 1345.855469 1283.894531 1349.40625 1280.890625 1351.464844 1279.386719 C 1362.757812 1271.15625 1374.089844 1262.265625 1376.429688 1259.804688 C 1377.894531 1258.261719 1380.878906 1256.253906 1383.0625 1255.339844 C 1385.246094 1254.429688 1387.917969 1252.335938 1388.996094 1250.691406 C 1390.074219 1249.042969 1392.683594 1246.816406 1394.792969 1245.742188 C 1396.902344 1244.664062 1400.761719 1241.960938 1403.363281 1239.738281 C 1413.417969 1231.148438 1429.320312 1219.234375 1430.730469 1219.234375 C 1431.546875 1219.234375 1433.394531 1217.566406 1434.847656 1215.53125 C 1436.296875 1213.496094 1439.925781 1210.753906 1442.917969 1209.433594 C 1445.910156 1208.117188 1449.019531 1206.09375 1449.832031 1204.945312 C 1450.648438 1203.792969 1453.3125 1201.636719 1455.753906 1200.148438 C 1460.371094 1197.332031 1469.925781 1189.464844 1480.265625 1179.953125 C 1487.839844 1172.988281 1494.128906 1171.132812 1503.984375 1172.957031 C 1509.378906 1173.953125 1512.082031 1175.304688 1516.605469 1179.265625 C 1519.769531 1182.039062 1525.15625 1186.746094 1528.574219 1189.722656 C 1531.988281 1192.703125 1536.648438 1196.261719 1538.925781 1197.632812 C 1541.207031 1199.003906 1544.667969 1201.804688 1546.625 1203.855469 C 1548.578125 1205.910156 1551.847656 1208.292969 1553.894531 1209.152344 C 1555.9375 1210.011719 1559.664062 1212.523438 1562.179688 1214.734375 C 1564.695312 1216.941406 1568.347656 1219.75 1570.300781 1220.96875 C 1572.253906 1222.1875 1575.984375 1224.949219 1578.589844 1227.097656 C 1583.09375 1230.820312 1593.589844 1239.28125 1607.378906 1250.308594 C 1610.839844 1253.078125 1616.167969 1257.539062 1619.21875 1260.21875 C 1622.269531 1262.902344 1626.363281 1265.914062 1628.316406 1266.910156 C 1630.269531 1267.90625 1634.265625 1270.785156 1637.195312 1273.304688 C 1640.125 1275.824219 1644.828125 1279.441406 1647.644531 1281.339844 C 1650.460938 1283.242188 1653.390625 1285.652344 1654.15625 1286.699219 C 1654.921875 1287.75 1657.441406 1289.757812 1659.753906 1291.164062 C 1662.066406 1292.574219 1665.675781 1295.613281 1667.773438 1297.917969 C 1669.871094 1300.226562 1672.355469 1302.109375 1673.296875 1302.109375 C 1674.234375 1302.109375 1677.703125 1304.507812 1681.003906 1307.4375 C 1684.300781 1310.367188 1687.472656 1312.765625 1688.050781 1312.765625 C 1688.625 1312.765625 1691.941406 1315.335938 1695.410156 1318.472656 C 1698.878906 1321.613281 1704.117188 1325.820312 1707.050781 1327.820312 C 1709.980469 1329.820312 1713.667969 1332.847656 1715.246094 1334.542969 C 1716.828125 1336.242188 1718.742188 1337.628906 1719.503906 1337.628906 C 1720.265625 1337.628906 1723.832031 1340.160156 1727.425781 1343.253906 C 1731.023438 1346.347656 1735.5 1349.796875 1737.378906 1350.925781 C 1739.257812 1352.046875 1743.722656 1355.398438 1747.304688 1358.363281 C 1751.550781 1361.867188 1755.835938 1365.328125 1760.15625 1368.746094 C 1763.644531 1371.492188 1768.675781 1375.777344 1771.335938 1378.265625 C 1773.992188 1380.753906 1777.679688 1383.570312 1779.523438 1384.527344 C 1781.363281 1385.480469 1784.859375 1388.09375 1787.289062 1390.332031 C 1793.140625 1395.734375 1800.820312 1401.710938 1809.238281 1407.414062 C 1816.039062 1412.019531 1819.210938 1414.550781 1831.964844 1425.539062 C 1835.554688 1428.628906 1838.9375 1431.160156 1839.480469 1431.160156 C 1840.023438 1431.160156 1843.421875 1433.691406 1847.035156 1436.785156 C 1850.648438 1439.878906 1857.738281 1445.605469 1862.789062 1449.511719 C 1867.839844 1453.421875 1874.832031 1459.148438 1878.320312 1462.242188 C 1881.8125 1465.332031 1885.195312 1467.863281 1885.835938 1467.863281 C 1886.476562 1467.863281 1889.210938 1469.863281 1891.910156 1472.304688 C 1894.609375 1474.746094 1898.542969 1477.808594 1900.65625 1479.113281 C 1903.910156 1481.121094 1916 1490.191406 1931.425781 1502.199219 C 1941.585938 1510.109375 1948.457031 1515.894531 1953.3125 1520.632812 C 1962.542969 1529.640625 1970.289062 1535.996094 1976.097656 1539.324219 C 1979.1875 1541.097656 1982.527344 1544.121094 1983.523438 1546.046875 C 1984.574219 1548.070312 1987.191406 1550.324219 1989.730469 1551.386719 C 1992.148438 1552.394531 1995.273438 1554.300781 1996.675781 1555.617188 L 1999.226562 1558.015625 L 2009.964844 1551.960938 C 2015.871094 1548.632812 2021.679688 1544.664062 2022.875 1543.144531 C 2024.074219 1541.625 2027.15625 1539.296875 2029.730469 1537.972656 C 2032.527344 1536.535156 2035.039062 1534.113281 2035.96875 1531.960938 C 2036.824219 1529.980469 2038.671875 1527.992188 2040.082031 1527.546875 C 2041.488281 1527.101562 2045.058594 1524.277344 2048.015625 1521.273438 C 2050.972656 1518.269531 2055.785156 1514.125 2058.703125 1512.058594 C 2074.214844 1501.074219 2090.613281 1488.894531 2094.816406 1485.234375 C 2097.433594 1482.953125 2101.019531 1480.425781 2102.792969 1479.621094 C 2104.5625 1478.816406 2106.828125 1476.902344 2107.832031 1475.371094 C 2108.835938 1473.84375 2111.90625 1471.183594 2114.65625 1469.464844 C 2117.40625 1467.746094 2121.636719 1464.570312 2124.054688 1462.40625 C 2126.472656 1460.246094 2131.003906 1457.179688 2134.117188 1455.59375 C 2137.234375 1454.011719 2140.964844 1451.109375 2142.40625 1449.148438 C 2143.847656 1447.183594 2146.867188 1444.972656 2149.117188 1444.230469 C 2151.367188 1443.488281 2154.0625 1441.574219 2155.109375 1439.976562 C 2156.15625 1438.378906 2159.265625 1435.667969 2162.015625 1433.949219 C 2164.765625 1432.226562 2168.996094 1429.050781 2171.414062 1426.890625 C 2173.832031 1424.726562 2177.828125 1421.660156 2180.292969 1420.074219 C 2182.757812 1418.492188 2189.1875 1412.84375 2194.578125 1407.527344 C 2199.96875 1402.210938 2206.136719 1397.125 2208.285156 1396.230469 C 2210.4375 1395.332031 2212.921875 1393.722656 2213.808594 1392.652344 C 2214.695312 1391.582031 2218.917969 1388.933594 2223.1875 1386.765625 C 2227.457031 1384.597656 2233.335938 1380.367188 2236.253906 1377.367188 C 2240.804688 1372.683594 2241.351562 1371.621094 2240.09375 1369.863281 C 2239.289062 1368.738281 2237.789062 1366.222656 2236.765625 1364.269531 C 2235.484375 1361.835938 2232.40625 1359.507812 2226.992188 1356.875 C 2222.644531 1354.761719 2217.496094 1351.671875 2215.546875 1350.007812 C 2213.597656 1348.347656 2210.148438 1345.796875 2207.878906 1344.34375 C 2205.609375 1342.890625 2203.148438 1340.484375 2202.40625 1338.996094 C 2201.664062 1337.507812 2199.261719 1335.394531 2197.066406 1334.296875 C 2194.871094 1333.199219 2192.007812 1330.589844 2190.703125 1328.5 C 2189.328125 1326.296875 2186.609375 1324.105469 2184.25 1323.296875 C 2182.007812 1322.53125 2177.742188 1319.667969 2174.777344 1316.9375 C 2171.8125 1314.207031 2166.988281 1310.316406 2164.054688 1308.285156 C 2161.125 1306.257812 2157.421875 1303.183594 2155.824219 1301.457031 C 2154.226562 1299.730469 2151.683594 1297.847656 2150.171875 1297.273438 C 2148.660156 1296.699219 2146.359375 1294.421875 2145.054688 1292.214844 C 2143.449219 1289.496094 2140.972656 1287.550781 2137.363281 1286.167969 C 2133.867188 1284.835938 2131.429688 1282.957031 2130.269531 1280.710938 C 2129.277344 1278.796875 2127.125 1276.9375 2125.394531 1276.503906 C 2123.691406 1276.078125 2119.507812 1273.457031 2116.101562 1270.679688 C 2112.695312 1267.90625 2107.769531 1264.285156 2105.160156 1262.636719 C 2102.550781 1260.992188 2099.152344 1258.097656 2097.605469 1256.210938 C 2096.0625 1254.324219 2092.851562 1251.613281 2090.476562 1250.191406 C 2088.105469 1248.769531 2085.296875 1246.285156 2084.238281 1244.675781 C 2083.183594 1243.0625 2080.328125 1240.914062 2077.898438 1239.902344 C 2075.472656 1238.890625 2071.621094 1236.316406 2069.339844 1234.1875 C 2067.0625 1232.054688 2063.644531 1229.347656 2061.746094 1228.171875 C 2059.847656 1226.992188 2056.121094 1224.039062 2053.457031 1221.605469 C 2050.796875 1219.171875 2046.867188 1216.285156 2044.722656 1215.191406 C 2042.574219 1214.09375 2039.804688 1211.527344 2038.5625 1209.484375 C 2037.320312 1207.441406 2034.011719 1204.667969 2031.214844 1203.324219 C 2028.363281 1201.957031 2025.464844 1199.488281 2024.621094 1197.710938 C 2023.726562 1195.824219 2021.503906 1194.003906 2019.140625 1193.226562 C 2016.953125 1192.503906 2014.167969 1190.800781 2012.949219 1189.441406 C 2011.730469 1188.082031 2006.886719 1184.367188 2002.1875 1181.1875 C 1997.484375 1178.003906 1993.105469 1174.410156 1992.460938 1173.203125 C 1991.8125 1171.988281 1989.410156 1170.113281 1987.125 1169.027344 C 1984.839844 1167.941406 1981.554688 1165.203125 1979.832031 1162.945312 C 1978.105469 1160.683594 1974.367188 1157.800781 1971.523438 1156.542969 C 1968.527344 1155.21875 1965.773438 1152.992188 1964.984375 1151.257812 C 1964.234375 1149.613281 1961.964844 1147.710938 1959.945312 1147.035156 C 1957.925781 1146.355469 1954.027344 1143.714844 1951.28125 1141.164062 C 1948.535156 1138.613281 1944.007812 1134.949219 1941.21875 1133.023438 C 1938.429688 1131.09375 1934.683594 1127.871094 1932.898438 1125.855469 C 1931.113281 1123.835938 1927.816406 1121.421875 1925.578125 1120.484375 C 1923.3125 1119.539062 1920.6875 1117.207031 1919.667969 1115.238281 C 1918.546875 1113.070312 1916.296875 1111.183594 1913.882812 1110.386719 C 1911.707031 1109.667969 1908.101562 1107.179688 1905.871094 1104.855469 C 1903.636719 1102.53125 1899.796875 1099.59375 1897.339844 1098.324219 C 1892.828125 1096 1882.816406 1087.894531 1875.171875 1080.375 C 1872.894531 1078.132812 1868.980469 1075.34375 1866.476562 1074.171875 C 1863.972656 1073.003906 1861.339844 1070.757812 1860.621094 1069.179688 C 1859.902344 1067.601562 1857.15625 1065.214844 1854.515625 1063.875 C 1851.875 1062.535156 1848.117188 1059.679688 1846.164062 1057.527344 C 1844.210938 1055.375 1839.8125 1052.195312 1836.386719 1050.457031 C 1832.960938 1048.71875 1829.019531 1045.699219 1827.625 1043.742188 C 1826.234375 1041.789062 1823.339844 1039.457031 1821.195312 1038.558594 C 1819.054688 1037.664062 1815.902344 1035.101562 1814.199219 1032.863281 C 1812.492188 1030.628906 1809.59375 1028.273438 1807.761719 1027.636719 C 1805.925781 1026.996094 1802.984375 1024.585938 1801.226562 1022.277344 C 1799.464844 1019.96875 1796.277344 1017.503906 1794.140625 1016.800781 C 1792.003906 1016.09375 1787.648438 1013.089844 1784.46875 1010.121094 C 1781.285156 1007.148438 1776.683594 1003.429688 1774.242188 1001.855469 C 1771.800781 1000.28125 1769.136719 997.871094 1768.320312 996.503906 C 1767.507812 995.136719 1764.558594 993.023438 1761.765625 991.808594 C 1758.789062 990.507812 1755.855469 988.117188 1754.664062 986.023438 C 1753.488281 983.957031 1750.988281 981.902344 1748.742188 981.15625 C 1746.601562 980.445312 1743.671875 978.257812 1742.230469 976.296875 C 1740.789062 974.335938 1737.15625 971.480469 1734.15625 969.957031 C 1731.15625 968.429688 1726.363281 964.980469 1723.5 962.289062 C 1720.636719 959.597656 1716.917969 956.667969 1715.234375 955.78125 C 1713.550781 954.894531 1710.753906 952.308594 1709.019531 950.035156 C 1707.285156 947.757812 1704.667969 945.535156 1703.203125 945.09375 C 1699.785156 944.054688 1695.210938 939.878906 1695.210938 937.796875 C 1695.210938 936.910156 1692.714844 935.113281 1689.664062 933.804688 C 1686.613281 932.496094 1681.828125 929.320312 1679.03125 926.742188 C 1676.238281 924.167969 1673.472656 922.058594 1672.890625 922.058594 C 1672.308594 922.058594 1668.546875 919.128906 1664.53125 915.546875 C 1660.515625 911.96875 1656.480469 909.035156 1655.558594 909.035156 C 1654.636719 909.035156 1652.179688 906.917969 1650.09375 904.324219 C 1648.011719 901.730469 1645.191406 899.277344 1643.824219 898.867188 C 1642.457031 898.460938 1639.210938 896.113281 1636.605469 893.648438 C 1634 891.179688 1630.269531 888.351562 1628.316406 887.351562 C 1626.363281 886.355469 1621.984375 882.90625 1618.582031 879.683594 C 1615.183594 876.464844 1610.855469 873.195312 1608.972656 872.414062 C 1607.089844 871.632812 1604.824219 869.648438 1603.945312 868 C 1603.0625 866.355469 1599.808594 863.722656 1596.710938 862.152344 C 1593.382812 860.464844 1590.324219 857.847656 1589.242188 855.753906 C 1588.078125 853.5 1586.492188 852.207031 1584.890625 852.207031 C 1583.488281 852.207031 1580.484375 850.175781 1578.113281 847.621094 C 1575.769531 845.097656 1570.65625 841.421875 1566.75 839.453125 C 1562.84375 837.480469 1558.316406 834.433594 1556.6875 832.675781 C 1555.058594 830.917969 1551.761719 828.472656 1549.363281 827.242188 C 1546.964844 826.011719 1544.117188 823.511719 1543.039062 821.6875 C 1541.957031 819.859375 1539.136719 817.320312 1536.765625 816.046875 C 1534.394531 814.773438 1531.382812 812.035156 1530.070312 809.96875 C 1528.753906 807.902344 1526.472656 805.890625 1525 805.503906 C 1523.523438 805.113281 1519.496094 802.277344 1516.046875 799.199219 C 1512.597656 796.121094 1507.277344 791.878906 1504.222656 789.777344 C 1497.714844 785.292969 1497.1875 782.507812 1501.621094 775.972656 C 1503.238281 773.585938 1505.382812 770.054688 1506.378906 768.125 C 1507.378906 766.195312 1510.179688 763.597656 1512.609375 762.355469 C 1515.039062 761.113281 1518.234375 758.453125 1519.710938 756.445312 C 1521.1875 754.4375 1523.867188 752.03125 1525.664062 751.101562 C 1527.464844 750.171875 1531.34375 747.097656 1534.285156 744.273438 C 1540.683594 738.132812 1552.6875 728.773438 1558.785156 725.175781 C 1561.203125 723.75 1564.683594 720.871094 1566.519531 718.78125 C 1568.355469 716.691406 1571.023438 714.617188 1572.449219 714.171875 C 1573.875 713.726562 1576.8125 711.304688 1578.980469 708.789062 C 1581.144531 706.269531 1583.636719 704.210938 1584.511719 704.210938 C 1585.386719 704.210938 1587.71875 702.601562 1589.6875 700.628906 C 1591.660156 698.65625 1597.429688 693.953125 1602.507812 690.179688 C 1607.585938 686.40625 1612.449219 682.453125 1613.316406 681.394531 C 1614.183594 680.335938 1616.578125 678.910156 1618.644531 678.222656 C 1620.769531 677.515625 1623.285156 675.414062 1624.441406 673.375 C 1625.566406 671.398438 1628.316406 669.015625 1630.546875 668.082031 C 1632.78125 667.148438 1635.769531 664.90625 1637.191406 663.101562 C 1638.609375 661.292969 1641.800781 658.480469 1644.285156 656.855469 C 1646.765625 655.226562 1654.3125 649.308594 1661.054688 643.703125 C 1667.792969 638.097656 1674.960938 632.664062 1676.980469 631.628906 C 1679 630.59375 1681.535156 628.390625 1682.621094 626.738281 C 1683.703125 625.085938 1686.625 622.695312 1689.117188 621.425781 C 1691.605469 620.15625 1695.53125 617.351562 1697.839844 615.195312 C 1704.582031 608.898438 1713.070312 601.9375 1720.074219 596.972656 C 1723.65625 594.429688 1728.246094 590.617188 1730.277344 588.492188 C 1732.308594 586.371094 1734.808594 584.632812 1735.835938 584.632812 C 1736.863281 584.632812 1740.324219 582.101562 1743.527344 579.007812 C 1746.734375 575.917969 1751.957031 571.398438 1755.140625 568.972656 C 1760.398438 564.9375 1765.636719 560.875 1770.859375 556.789062 C 1776.328125 552.511719 1781.828125 548.464844 1783.085938 547.789062 C 1784.34375 547.117188 1787.460938 544.476562 1790.015625 541.921875 C 1792.570312 539.367188 1795.273438 537.273438 1796.019531 537.273438 C 1796.765625 537.273438 1799.875 535.011719 1802.933594 532.242188 C 1805.988281 529.476562 1811.902344 524.578125 1816.078125 521.359375 C 1838.472656 504.09375 1842.652344 500.804688 1847.160156 496.882812 C 1849.871094 494.527344 1853.738281 491.757812 1855.757812 490.726562 C 1857.777344 489.699219 1860.3125 487.5 1861.398438 485.847656 C 1862.480469 484.195312 1865.625 481.695312 1868.382812 480.292969 C 1871.140625 478.886719 1876.121094 475.414062 1879.449219 472.574219 C 1882.777344 469.734375 1887.171875 466.828125 1889.21875 466.117188 C 1891.257812 465.40625 1892.929688 464.382812 1892.929688 463.84375 C 1892.929688 461.640625 1899.136719 455.707031 1902.140625 455.039062 C 1904.023438 454.621094 1906.46875 452.625 1908.027344 450.234375 C 1909.492188 447.980469 1912.515625 445.378906 1914.742188 444.449219 C 1916.972656 443.515625 1919.691406 441.386719 1920.785156 439.71875 C 1921.878906 438.046875 1924.6875 435.5 1927.023438 434.054688 C 1929.363281 432.609375 1933.847656 429.140625 1936.996094 426.347656 C 1940.140625 423.550781 1944.699219 420.25 1947.125 419.007812 C 1949.550781 417.765625 1952.652344 415.230469 1954.019531 413.375 C 1955.382812 411.519531 1958.046875 409.199219 1959.9375 408.222656 C 1961.828125 407.246094 1964.761719 405.117188 1966.457031 403.488281 C 1973.683594 396.546875 1984.019531 388.113281 1990.046875 384.238281 C 1993.613281 381.945312 1997.859375 378.625 1999.488281 376.863281 C 2001.117188 375.101562 2004.425781 372.644531 2006.847656 371.402344 C 2009.269531 370.160156 2011.816406 368.082031 2012.511719 366.785156 C 2013.207031 365.488281 2015.753906 363.410156 2018.171875 362.167969 C 2020.59375 360.929688 2023.90625 358.464844 2025.535156 356.695312 C 2027.164062 354.925781 2030.550781 352.164062 2033.066406 350.5625 C 2038.457031 347.125 2050.414062 337.695312 2059.414062 329.785156 C 2062.933594 326.691406 2066.472656 324.164062 2067.28125 324.164062 C 2068.089844 324.164062 2070.234375 322.300781 2072.050781 320.027344 C 2073.863281 317.75 2076.847656 315.117188 2078.675781 314.171875 C 2080.503906 313.222656 2083.835938 310.691406 2086.082031 308.539062 C 2091.363281 303.480469 2104.710938 293.609375 2111.386719 289.828125 C 2114.257812 288.199219 2117.710938 285.433594 2119.058594 283.675781 C 2120.40625 281.921875 2123.246094 279.855469 2125.375 279.085938 C 2127.503906 278.316406 2130.335938 276.023438 2131.671875 273.988281 C 2133.003906 271.957031 2135.640625 269.507812 2137.53125 268.550781 C 2139.421875 267.59375 2143.171875 264.839844 2145.867188 262.4375 C 2148.558594 260.03125 2152.824219 256.757812 2155.339844 255.164062 C 2157.855469 253.570312 2162.191406 250.363281 2164.972656 248.03125 C 2167.753906 245.703125 2171.148438 243.441406 2172.507812 243.007812 C 2174.835938 242.269531 2178.261719 239.273438 2191.289062 226.589844 C 2194.21875 223.734375 2197.902344 220.746094 2199.476562 219.949219 C 2201.050781 219.148438 2205.136719 216.214844 2208.558594 213.429688 C 2211.980469 210.644531 2216.386719 208.011719 2218.351562 207.578125 C 2220.730469 207.058594 2222.753906 205.398438 2224.390625 202.625 C 2225.964844 199.957031 2228.53125 197.796875 2231.515625 196.625 C 2235.699219 194.980469 2236.261719 194.265625 2236.945312 189.707031 C 2237.867188 183.539062 2237.414062 182.714844 2231.363281 179.628906 C 2228.75 178.296875 2225.753906 175.707031 2224.707031 173.882812 C 2223.65625 172.054688 2221.085938 169.941406 2218.996094 169.183594 C 2216.90625 168.425781 2213.78125 165.957031 2212.050781 163.691406 C 2210.324219 161.425781 2206.878906 158.535156 2204.394531 157.265625 C 2201.914062 156 2197.617188 152.789062 2194.851562 150.132812 C 2192.085938 147.476562 2188.328125 144.527344 2186.503906 143.585938 C 2184.679688 142.640625 2182 140.203125 2180.550781 138.164062 C 2179.097656 136.128906 2176.15625 133.730469 2174.015625 132.832031 C 2171.871094 131.9375 2168.730469 129.386719 2167.035156 127.164062 C 2165.339844 124.941406 2162.609375 122.785156 2160.972656 122.371094 C 2159.335938 121.960938 2155.765625 119.628906 2153.035156 117.183594 C 2150.304688 114.738281 2145.941406 111.203125 2143.335938 109.320312 C 2137.167969 104.867188 2128.464844 97.472656 2122.25 91.410156 C 2119.523438 88.75 2115.5625 85.890625 2113.453125 85.054688 C 2111.34375 84.222656 2108.535156 81.792969 2107.21875 79.660156 C 2105.867188 77.476562 2103.410156 75.425781 2101.601562 74.972656 C 2099.835938 74.527344 2095.714844 71.894531 2092.449219 69.117188 C 2089.179688 66.34375 2084.335938 62.644531 2081.683594 60.902344 C 2079.03125 59.160156 2075.6875 56.148438 2074.257812 54.210938 C 2072.824219 52.273438 2069.664062 49.664062 2067.238281 48.410156 C 2064.8125 47.15625 2062.164062 45.03125 2061.355469 43.691406 C 2060.546875 42.351562 2057.644531 40.109375 2054.90625 38.714844 C 2052.164062 37.316406 2048.300781 34.617188 2046.3125 32.71875 C 2039.25 25.96875 2029.601562 17.851562 2024.351562 14.246094 C 2021.417969 12.238281 2017.570312 9.015625 2015.796875 7.085938 C 2013.839844 4.964844 2010.808594 3.265625 2008.101562 2.773438 C 2005.640625 2.328125 2002.566406 1.773438 2001.261719 1.542969 C 1999.960938 1.3125 1996.292969 1.996094 1993.113281 3.0625 " fill-opacity="1" fill-rule="evenodd"/></g></g></g></svg>